<svg xmlns="http://www.w3.org/2000/svg" width="256" height="256"><path fill-opacity=".016" d="M0 128.004v128.004l128.25-.254 128.25-.254.254-127.75L257.008 0H0v128.004m.485.496c0 70.4.119 99.053.265 63.672.146-35.38.146-92.98 0-128C.604 29.153.485 58.1.485 128.5" fill="#1976D2" fill-rule="evenodd"/><path fill-opacity=".231" d="M13 128v128h100v-39h16.39c18.007 0 28.152-1.443 39.96-5.682 28.097-10.089 48.764-28.456 61.684-54.818 9.09-18.55 10.466-24.958 10.412-48.5-.043-18.334-.209-20.038-2.787-28.5-3.555-11.669-11.26-27.283-17.542-35.551-6.251-8.227-18.832-20.272-26.395-25.273-13.874-9.173-30.136-15.375-46.156-17.604C143.737.401 116.964 0 76.928 0H13v128" fill="#1976D2" fill-rule="evenodd"/><path fill-opacity=".508" d="M13 127.937c0 70.435.198 128.063.44 128.063s4.386-5.512 9.209-12.25c4.823-6.738 22.372-30.99 38.999-53.895l30.229-41.644.312-26.381.311-26.381 3.292-6.683c5.855-11.885 15.392-18.012 28.968-18.609 11.359-.499 12.8.262 6.47 3.416-6.075 3.027-12.61 9.848-15.569 16.251-2.13 4.609-2.165 5.558-2.441 66.06l-.279 61.383 18.279-.578c18.572-.587 26.051-1.729 37.907-5.789 21.189-7.254 41.522-22.712 53.951-41.016 6.113-9.001 12.656-23.465 15.655-34.607 2.363-8.777 2.63-11.516 2.609-26.777-.021-15.083-.315-18.095-2.614-26.706-9.53-35.705-36.411-64.46-70.741-75.672C151.07.597 152.472.69 80.25.267L13-.127v128.064" fill="#1976D2" fill-rule="evenodd"/><path fill-opacity=".737" d="M130.943 73.969c-5.44 2.876-11.968 9.924-14.849 16.031-2.555 5.417-2.599 5.898-2.918 31.75l-.323 26.25h48.344l-.361-25.75c-.353-25.243-.411-25.859-2.949-31.296-3.185-6.821-7.977-12.409-13.833-16.129-5.155-3.276-8.163-3.472-13.111-.856" fill="#1976D2" fill-rule="evenodd"/></svg>